# xmcd CD database file
#
# Track frame offsets:
#	150
#	18600
#	46375
#	64758
#
# Disc length: 1230 seconds
#
# Revision: 2
# Processed by: cddbd v1.5.1PL2 Copyright (c) Steve Scherf et al.
# Submitted via: CDex 1.51
#
DISCID=3004cc04
DTITLE=猿岩石 - 白い雲のように
DYEAR=1996
DGENRE=Pop
TTITLE0=白い雲のように
TTITLE1=どうして僕は旅をしているのだろう
TTITLE2=白い雲のように(Karaoke)
TTITLE3=どうして僕は旅をしているのだろう(Karaoke)
EXTD=YEAR: 1996
EXTT0=
EXTT1=
EXTT2=
EXTT3=
PLAYORDER=
